<svg id="Layer_1" fill="#FB8104" enable-background="new 0 0 512 512" height="60" viewBox="0 0 512 512" width="60" xmlns="http://www.w3.org/2000/svg" xmlns:xlink="http://www.w3.org/1999/xlink" version="1.1" xmlns:svgjs="http://svgjs.dev/svgjs"><g transform="matrix(1,0,0,1,0,0)"><path d="m477.729 157.044h-53.666v-99.88c0-21.492-17.485-38.977-38.977-38.977h-346.109c-21.492 0-38.977 17.485-38.977 38.977v261.356c0 21.492 17.485 38.977 38.977 38.977h23.018v59.932c0 6.096 3.464 11.662 8.933 14.354 2.241 1.104 4.659 1.646 7.065 1.646 3.466 0 6.907-1.125 9.759-3.319l80.466-61.908v30.956c0 18.897 15.374 34.272 34.271 34.272h160.284l74.171 57.065c2.853 2.194 6.293 3.319 9.759 3.319 2.406 0 4.824-.542 7.065-1.646 5.469-2.692 8.933-8.259 8.933-14.354v-44.384h15.028c18.897 0 34.271-15.375 34.271-34.272v-207.84c0-18.899-15.374-34.274-34.271-34.274zm-383.735 227.887v-43.435c0-8.836-7.163-16-16-16h-39.017c-3.782 0-6.977-3.195-6.977-6.977v-261.355c0-3.782 3.194-6.977 6.977-6.977h346.109c3.782 0 6.977 3.195 6.977 6.977v261.356c0 3.782-3.194 6.977-6.977 6.977h-208.398c-3.529 0-6.959 1.167-9.757 3.319zm386.006 14.226c0 1.21-1.062 2.272-2.271 2.272h-31.029c-8.837 0-16 7.164-16 16v27.887l-52.729-40.568c-2.797-2.152-6.227-3.319-9.756-3.319h-165.727c-1.21 0-2.271-1.062-2.271-2.272v-41.66h184.869c21.491 0 38.977-17.485 38.977-38.977v-129.476h53.666c1.21 0 2.271 1.062 2.271 2.272zm-378.769-288.115c0-8.836 7.163-16 16-16h189.601c8.837 0 16 7.164 16 16s-7.163 16-16 16h-189.601c-8.836 0-16-7.164-16-16zm0 76.8c0-8.836 7.163-16 16-16h189.601c8.837 0 16 7.164 16 16s-7.163 16-16 16h-189.601c-8.836 0-16-7.164-16-16zm205.601 92.8h-189.601c-8.837 0-16-7.164-16-16s7.163-16 16-16h189.601c8.837 0 16 7.164 16 16s-7.163 16-16 16z" data-original-color="SVGID_1_" stroke="none"/></g><defs><linearGradient id="SVGID_1_"><stop stop-color="#ff1100ff" offset="1"/><stop stop-color="#f8bc16ff" offset="1"/></linearGradient></defs></svg>