<svg fill="#FB8104" height="60" viewBox="0 0 25 24" width="60" xmlns="http://www.w3.org/2000/svg" xmlns:xlink="http://www.w3.org/1999/xlink" version="1.1" xmlns:svgjs="http://svgjs.dev/svgjs"><g transform="matrix(1,0,0,1,0,0)"><clipPath id="clip0_203_545"><path d="m.602 0h24v24h-24z" fill="#000000ff" data-original-color="#000000ff" stroke="none"/></clipPath><g clip-path="url(#clip0_203_545)" fill="url(#paint0_linear_203_545)"><path d="m4.26124 20.18-.37-.929s.905-.36 1.077-.42l2.033-.707c.29699-.104.57-.261.81-.467l.966-.832c.208-.181.525-.158.70499.053.18.209.15701.525-.05299.705l-.966.833c-.335.289-.717.508-1.134.653l-2.033.707c-.165.057-1.035.404-1.035.404z" fill="url(#paint0_linear_203_545)" data-original-color="paint0_linear_203_545" stroke="none"/><path d="m20.9362 20.178s-.832-.346-.997-.403l-2.033-.708c-.417-.145-.798-.364-1.133-.653l-.966-.832c-.209-.18-.233-.496-.053-.705.18-.21.496-.233.705-.053l.966.832c.239.206.511.363.809.466l2.034.708c.174.061 1.051.424 1.051.424z" fill="url(#paint0_linear_203_545)" data-original-color="paint0_linear_203_545" stroke="none"/><path d="m12.6022 24c-6.61703 0-12.000027-5.383-12.000027-12s5.382997-12 12.000027-12c6.617 0 12 5.383 12 12s-5.383 12-12 12zm0-23c-6.06503 0-11.00003 4.935-11.00003 11s4.935 11 11.00003 11c6.065 0 11-4.935 11-11s-4.935-11-11-11z" fill="url(#paint0_linear_203_545)" data-original-color="paint0_linear_203_545" stroke="none"/><path d="m17.6022 11.5c-.04 0-.08-.005-.12-.015-.131-.032-.244-.117-.312-.233-.047-.081-.392-.687-.52-1.372-2.069-.119-3.921-1.035-4.873-1.966-.713 1.154-2.41603 1.443-3.17503 1.443-.13.105-.403.941-.504 1.708-.022.168-.129.313-.282.386-.152.073-.333.062-.478-.027-.191-.118-.784-.424-1.236-.424-.276 0-.5-.224-.5-.5s.224-.5.5-.5c.397 0 .801.121 1.123.253.186-.843.579-1.896 1.377-1.896.025 0 2.50003-.071 2.50003-1.643 0-.276.224-.5.5-.5s.5.224.5.5c.076.441 2.108 2.179 5 2.179.276 0 .5.224.5.5 0 .297.11.647.225.925.341-.154.813-.318 1.275-.318.276 0 .5.224.5.5s-.224.5-.5.5c-.455 0-1.059.314-1.235.424-.08.05-.172.076-.265.076z" fill="url(#paint0_linear_203_545)" data-original-color="paint0_linear_203_545" stroke="none"/><path d="m12.6022 19c-.241 0-.491-.025-.787-.08-.115-.02-.232-.048-.351-.078-.094-.025-.178-.053-.263-.082-1.68803-.534-3.12603-2.033-3.92203-4.063-.064.013-.124.017-.177.017-.869 0-1.5-1.111-1.5-2.643 0-.218.06-.758.09-1.015-.041-.132-.09-.343-.09-.592 0-4.115 3.14-7.464 7.00003-7.464.276 0 .5.224.5.5s-.224.5-.5.5c-3.30903 0-6.00003 2.9-6.00003 6.464 0 .191.06.339.061.34.032.079.046.171.036.255-.001.004-.097.781-.097 1.012 0 1.003.353 1.606.504 1.644-.008-.002.027-.023.078-.078.12-.132.302-.191.477-.151.175.038.315.167.37.337.638 2.009 1.939 3.5 3.48103 3.988.075.025.141.047.209.065.084.021.176.044.271.061.203.037.404.063.61.063.276 0 .5.224.5.5s-.224.5-.5.5z" fill="url(#paint0_linear_203_545)" data-original-color="paint0_linear_203_545" stroke="none"/><path d="m12.6022 19c-.276 0-.5-.224-.5-.5s.224-.5.5-.5c.206 0 .407-.026.606-.063.099-.017.191-.04.284-.063.059-.017.125-.039.192-.061 1.551-.491 2.852-1.981 3.489-3.99.054-.17.194-.298.369-.337.174-.038.355.019.477.151.051.056.087.077.096.08.133-.039.487-.642.487-1.646 0-.231-.096-1.008-.097-1.011-.011-.089.003-.179.039-.261 0 0 .058-.146.058-.335 0-3.564-2.691-6.464-6-6.464-.276 0-.5-.224-.5-.5s.224-.5.5-.5c3.86 0 7 3.349 7 7.464 0 .249-.049.459-.09.592.03.257.09.797.09 1.015 0 1.532-.631 2.643-1.5 2.643-.053 0-.113-.004-.178-.017-.794 2.03-2.233 3.529-3.93 4.066-.077.026-.161.054-.247.077-.126.032-.244.06-.364.081-.29.054-.54.079-.781.079z" fill="url(#paint0_linear_203_545)" data-original-color="paint0_linear_203_545" stroke="none"/><path d="m11.1022 12h-1c-.27603 0-.50003-.224-.50003-.5s.224-.5.50003-.5h1c.276 0 .5.224.5.5s-.224.5-.5.5z" fill="url(#paint0_linear_203_545)" data-original-color="paint0_linear_203_545" stroke="none"/><path d="m15.1022 12h-1c-.276 0-.5-.224-.5-.5s.224-.5.5-.5h1c.276 0 .5.224.5.5s-.224.5-.5.5z" fill="url(#paint0_linear_203_545)" data-original-color="paint0_linear_203_545" stroke="none"/><path d="m16.6022 18c-.263 0-.483-.205-.499-.471-.016-.275.194-.512.47-.528.678-.04 2.117-.518 2.95-.819-.25-1.184-.921-4.481-.921-5.682 0-.276.224-.5.5-.5s.5.224.5.5c0 1.337.979 5.848.989 5.894.052.241-.079.484-.309.573-.103.039-2.523.966-3.65 1.032-.01.001-.021.001-.03.001z" fill="url(#paint0_linear_203_545)" data-original-color="paint0_linear_203_545" stroke="none"/><path d="m8.60251 18c-.01 0-.02 0-.03-.001-1.127-.066-3.548-.993-3.65-1.032-.23-.089-.361-.332-.309-.573.01-.046.98866-4.558.98866-5.894 0-.276.224-.5.5-.5s.50034.224.50034.5c0 1.201-.671 4.498-.921 5.682.833.301 2.272.779 2.95.819.276.016.486.253.47.528-.016.266-.236.471-.499.471z" fill="url(#paint0_linear_203_545)" data-original-color="paint0_linear_203_545" stroke="none"/><path d="m12.6022 24c-.13 0-.2597-.051-.3557-.148-.157-.159-.189-.402-.081-.596l3.532-6.296c.087-.156.251-.253.429-.255.173.019.345.09.436.244l1.968 3.296c.07.117.089.257.053.388s-.124.242-.243.307l-5.5 3c-.075.04-.1563.06-.2383.06zm3.5453-5.798-2.259 4.027 3.518-1.918z" fill="url(#paint0_linear_203_545)" data-original-color="paint0_linear_203_545" stroke="none"/><path d="m12.6022 24c-.082 0-.1635-.02-.2385-.061l-5.50003-3c-.12-.065-.208-.177-.244-.309s-.01601-.272.05599-.389l2-3.295c.092-.152.22601-.25.43701-.241.178.003.341.102.427.257l3.50003 6.295c.108.195.075.438-.082.595-.096.097-.2255.148-.3555.148zm-4.80054-3.688 3.52504 1.923-2.24304-4.035z" fill="url(#paint0_linear_203_545)" data-original-color="paint0_linear_203_545" stroke="none"/><path d="m13.1022 16.856c-.869 0-1.5-.42-1.5-1s.631-1 1.5-1 1.5.42 1.5 1-.631 1-1.5 1z" fill="url(#paint0_linear_203_545)" data-original-color="paint0_linear_203_545" stroke="none"/><path d="m14.1022 16.356c-.276 0-.5-.224-.5-.5s.224-.5.5-.5c1.163 0 3.951-.737 4.188-1.952.052-.271.313-.45.586-.395.271.053.448.315.395.586-.409 2.1-4.148 2.761-5.169 2.761z" fill="url(#paint0_linear_203_545)" data-original-color="paint0_linear_203_545" stroke="none"/></g></g><defs><linearGradient id="paint0_linear_203_545"><stop stop-color="#ff7900ff" offset="1"/><stop stop-color="#ffc900ff" offset="1"/></linearGradient></defs></svg>